<svg xmlns="http://www.w3.org/2000/svg"
 xmlns:xlink="http://www.w3.org/1999/xlink"
 width="19px" height="18px"  viewBox="0 0 19 18">
<path fill-rule="evenodd"  fill="#ffffff"
 d="M9.999878,16.999756 C9.849304,16.999756 9.705505,16.936829 9.603088,16.82611 C9.603088,16.82611 3.208374,9.9105835 3.208374,9.9105835 C3.206787,9.90863 3.2050781,9.906677 3.2035522,9.904907 C2.427246,9.042664 1.9998169,7.8998413 1.9998169,6.6869507 C1.9998169,5.47406 2.427246,4.331299 3.2035522,3.468811 C3.2035522,3.468811 3.3007202,3.360962 3.3007202,3.360962 C4.0908203,2.4833374 5.145813,1.9998779 6.27124,1.9998779 C7.3967285,1.9998779 8.451782,2.4833374 9.241943,3.360962 C9.241943,3.360962 9.999878,4.203064 9.999878,4.203064 C9.999878,4.203064 10.757874,3.360962 10.757874,3.360962 C11.547974,2.4833374 12.602966,1.9998779 13.728455,1.9998779 C14.854004,1.9998779 15.908936,2.4833374 16.699097,3.361206 C16.699097,3.361206 16.796143,3.468811 16.796143,3.468811 C17.572449,4.331299 18.0,5.47406 18.0,6.6869507 C18.0,7.8998413 17.572449,9.042664 16.796265,9.905151 C16.794617,9.906677 16.79303,9.90863 16.791382,9.9105835 C16.791382,9.9105835 10.3967285,16.82611 10.3967285,16.82611 C10.294312,16.936829 10.150452,16.999756 9.999878,16.999756 ZM4.0046387,9.174377 C4.0046387,9.174377 9.999878,15.658264 9.999878,15.658264 C9.999878,15.658264 15.995178,9.174377 15.995178,9.174377 C17.22876,7.8009644 17.227905,5.569214 15.992859,4.1968384 C15.992859,4.1968384 15.895874,4.0892334 15.895874,4.0892334 C15.313477,3.4421997 14.543762,3.0861206 13.728455,3.0861206 C12.913208,3.0861206 12.143494,3.4421997 11.561279,4.0890503 C11.561279,4.0890503 10.401611,5.3775024 10.401611,5.3775024 C10.29895,5.49115 10.153076,5.5563965 9.999878,5.5563965 C9.846802,5.5563965 9.700928,5.49115 9.598206,5.3775024 C9.598206,5.3775024 8.43866,4.0890503 8.43866,4.0890503 C7.8563232,3.4421997 7.086731,3.0861206 6.2713013,3.0861206 C5.4559937,3.0861206 4.6862793,3.4421997 4.104065,4.0890503 C4.104065,4.0890503 4.006897,4.1968384 4.006897,4.1968384 C2.7717896,5.569214 2.7710571,7.8009644 4.0046387,9.174377 Z"/>
</svg>