<svg xmlns="http://www.w3.org/2000/svg"
 xmlns:xlink="http://www.w3.org/1999/xlink"
 width="26px" height="15px"  viewBox="0 0 26 15">
<path fill-rule="evenodd"  fill="#ffffff"
 d="M23.701477,9.17865 C23.324585,8.787598 22.714417,8.787781 22.33783,9.17865 C22.33783,9.17865 20.985596,10.582092 20.985596,10.582092 C20.985596,10.582092 20.985596,3.0008545 20.985596,3.0008545 C20.985596,2.4481812 20.553955,1.9998779 20.021362,1.9998779 C20.021362,1.9998779 10.582031,1.9998779 10.582031,1.9998779 C10.0494995,1.9998779 9.617798,2.4481812 9.617798,3.0008545 C9.617798,3.5534668 10.0494995,4.001648 10.582031,4.001648 C10.582031,4.001648 19.05719,4.001648 19.05719,4.001648 C19.05719,4.001648 19.05719,10.582092 19.05719,10.582092 C19.05719,10.582092 17.704956,9.178467 17.704956,9.178467 C17.32837,8.787415 16.718079,8.787415 16.341492,9.17804 C15.964783,9.569458 15.9646,10.202148 16.341309,10.59375 C16.341309,10.59375 19.339172,13.705444 19.339172,13.705444 C19.520447,13.893494 19.765442,13.998779 20.021362,13.998779 C20.277466,13.998779 20.522278,13.892944 20.703491,13.705444 C20.703491,13.705444 23.70166,10.59375 23.70166,10.59375 C24.078186,10.202942 24.078186,9.569458 23.701477,9.17865 ZM15.400879,11.997986 C15.400879,11.997986 6.9259644,11.997986 6.9259644,11.997986 C6.9259644,11.997986 6.9259644,5.4175415 6.9259644,5.4175415 C6.9259644,5.4175415 8.278198,6.820984 8.278198,6.820984 C8.466553,7.0166016 8.713257,7.114319 8.960144,7.114319 C9.207214,7.114319 9.453735,7.0166016 9.64209,6.820984 C10.018738,6.430359 10.018738,5.796509 9.642334,5.4057007 C9.642334,5.4057007 6.6434937,2.293396 6.6434937,2.293396 C6.4624634,2.1055298 6.2174683,2.000061 5.961487,2.000061 C5.7054443,2.000061 5.460327,2.1055298 5.279358,2.293396 C5.279358,2.293396 2.2814941,5.4057007 2.2814941,5.4057007 C1.9049683,5.796509 1.9049683,6.4299927 2.2816772,6.820984 C2.6585693,7.212036 3.2684326,7.211853 3.6453247,6.820984 C3.6453247,6.820984 4.9975586,5.4175415 4.9975586,5.4175415 C4.9975586,5.4175415 4.9975586,12.998779 4.9975586,12.998779 C4.9975586,13.551453 5.429138,13.999573 5.961792,13.999573 C5.961792,13.999573 15.401062,13.999573 15.401062,13.999573 C15.933716,13.999573 16.365356,13.551453 16.365356,12.998779 C16.365112,12.446167 15.933716,11.997986 15.400879,11.997986 Z"/>
</svg>